<svg xmlns="http://www.w3.org/2000/svg" width="411" height="57" viewBox="0 0 411 57">
  <g id="zzzzz" transform="translate(0 -592)">
    <path id="Bottom_Nav_Base" data-name="Bottom Nav Base" d="M49,0H183a0,0,0,0,1,0,0V49a0,0,0,0,1,0,0H0a0,0,0,0,1,0,0v0A49,49,0,0,1,49,0Z" transform="translate(228 600)" fill="#fff"/>
    <path id="Bottom_Nav_Base-2" data-name="Bottom Nav Base" d="M0,0H135a49,49,0,0,1,49,49v0a0,0,0,0,1,0,0H0a0,0,0,0,1,0,0V0A0,0,0,0,1,0,0Z" transform="translate(0 600)" fill="#fff"/>
    <path id="Path_6" data-name="Path 6" d="M22,0A22,22,0,1,1,0,22,22,22,0,0,1,22,0Z" transform="translate(184 592)" fill="#fff"/>
  </g>
</svg>
